<svg width="24" height="24" viewBox="0 0 24 24" fill="none" xmlns="http://www.w3.org/2000/svg">
<path d="M21.75 3.75H2.25C2.05109 3.75 1.86032 3.82902 1.71967 3.96967C1.57902 4.11032 1.5 4.30109 1.5 4.5V19.5C1.5 19.6989 1.57902 19.8897 1.71967 20.0303C1.86032 20.171 2.05109 20.25 2.25 20.25H21.75C21.9489 20.25 22.1397 20.171 22.2803 20.0303C22.421 19.8897 22.5 19.6989 22.5 19.5V4.5C22.5 4.30109 22.421 4.11032 22.2803 3.96967C22.1397 3.82902 21.9489 3.75 21.75 3.75ZM12.4603 13.342C12.3287 13.4444 12.1667 13.4999 12 13.4999C11.8333 13.4999 11.6713 13.4444 11.5397 13.342L4.19766 7.63172L5.11828 6.44766L12 11.7998L18.8817 6.44766L19.8023 7.63172L12.4603 13.342Z" fill="white"/>
</svg>
